<svg data-v-423bf9ae="" xmlns="http://www.w3.org/2000/svg" viewBox="0 0 333 90" class="iconLeft"><!----><!----><!----><g data-v-423bf9ae="" id="4b327ab3-a424-4bf0-8928-403839aa21d1" fill="#19CEDA" transform="matrix(6.054490506946714,0,0,6.054490506946714,103.03734189553013,12.457113826432519)"><path d="M8.60 3.46L8.60 3.46L8.60 3.46Q8.60 4.09 8.39 4.63L8.39 4.63L8.39 4.63Q8.18 5.17 7.77 5.57L7.77 5.57L7.77 5.57Q7.36 5.97 6.73 6.21L6.73 6.21L6.73 6.21Q6.11 6.44 5.28 6.44L5.28 6.44L2.45 6.44L2.45 10.19L1.15 10.19L1.15 0.56L5.20 0.56L5.20 0.56Q6.06 0.56 6.69 0.77L6.69 0.77L6.69 0.77Q7.33 0.98 7.75 1.36L7.75 1.36L7.75 1.36Q8.18 1.74 8.39 2.27L8.39 2.27L8.39 2.27Q8.60 2.81 8.60 3.46ZM7.29 3.47L7.29 3.47L7.29 3.47Q7.29 2.56 6.73 2.08L6.73 2.08L6.73 2.08Q6.17 1.61 5.04 1.61L5.04 1.61L2.45 1.61L2.45 5.41L5.10 5.41L5.10 5.41Q6.23 5.41 6.76 4.91L6.76 4.91L6.76 4.91Q7.29 4.41 7.29 3.47ZM17.57 1.63L14.26 1.63L14.26 10.19L12.96 10.19L12.96 1.63L9.65 1.63L9.65 0.56L17.57 0.56L17.57 1.63ZM22.89 10.33L22.89 10.33L22.89 10.33Q22.09 10.33 21.38 10.12L21.38 10.12L21.38 10.12Q20.67 9.91 20.14 9.46L20.14 9.46L20.14 9.46Q19.60 9.01 19.28 8.32L19.28 8.32L19.28 8.32Q18.97 7.64 18.97 6.69L18.97 6.69L18.97 0.56L20.28 0.56L20.28 6.58L20.28 6.58Q20.28 7.31 20.47 7.82L20.47 7.82L20.47 7.82Q20.67 8.33 21.01 8.65L21.01 8.65L21.01 8.65Q21.36 8.98 21.84 9.12L21.84 9.12L21.84 9.12Q22.31 9.27 22.88 9.27L22.88 9.27L22.88 9.27Q23.44 9.27 23.94 9.12L23.94 9.12L23.94 9.12Q24.44 8.97 24.81 8.64L24.81 8.64L24.81 8.64Q25.19 8.31 25.41 7.78L25.41 7.78L25.41 7.78Q25.62 7.25 25.62 6.49L25.62 6.49L25.62 0.56L26.92 0.56L26.92 6.57L26.92 6.57Q26.92 7.53 26.60 8.24L26.60 8.24L26.60 8.24Q26.28 8.95 25.74 9.41L25.74 9.41L25.74 9.41Q25.19 9.88 24.46 10.10L24.46 10.10L24.46 10.10Q23.72 10.33 22.89 10.33ZM28.70 5.33L28.70 5.33L28.70 5.33Q28.70 4.20 29.01 3.29L29.01 3.29L29.01 3.29Q29.31 2.39 29.92 1.75L29.92 1.75L29.92 1.75Q30.52 1.11 31.42 0.76L31.42 0.76L31.42 0.76Q32.31 0.42 33.50 0.42L33.50 0.42L33.50 0.42Q34.38 0.42 35.05 0.57L35.05 0.57L35.05 0.57Q35.72 0.73 36.22 1.03L36.22 1.03L36.22 1.03Q36.71 1.32 37.05 1.74L37.05 1.74L37.05 1.74Q37.39 2.16 37.63 2.69L37.63 2.69L36.39 3.06L36.39 3.06Q36.21 2.70 35.96 2.41L35.96 2.41L35.96 2.41Q35.71 2.12 35.36 1.91L35.36 1.91L35.36 1.91Q35 1.71 34.53 1.60L34.53 1.60L34.53 1.60Q34.06 1.48 33.46 1.48L33.46 1.48L33.46 1.48Q32.59 1.48 31.94 1.76L31.94 1.76L31.94 1.76Q31.29 2.03 30.87 2.54L30.87 2.54L30.87 2.54Q30.45 3.04 30.24 3.75L30.24 3.75L30.24 3.75Q30.03 4.46 30.03 5.33L30.03 5.33L30.03 5.33Q30.03 6.20 30.26 6.92L30.26 6.92L30.26 6.92Q30.48 7.64 30.93 8.17L30.93 8.17L30.93 8.17Q31.37 8.69 32.03 8.98L32.03 8.98L32.03 8.98Q32.69 9.27 33.56 9.27L33.56 9.27L33.56 9.27Q34.13 9.27 34.60 9.17L34.60 9.17L34.60 9.17Q35.08 9.08 35.47 8.92L35.47 8.92L35.47 8.92Q35.85 8.77 36.15 8.58L36.15 8.58L36.15 8.58Q36.44 8.39 36.64 8.20L36.64 8.20L36.64 6.47L33.76 6.47L33.76 5.37L37.84 5.37L37.84 8.70L37.84 8.70Q37.52 9.02 37.09 9.32L37.09 9.32L37.09 9.32Q36.65 9.62 36.11 9.84L36.11 9.84L36.11 9.84Q35.57 10.07 34.93 10.20L34.93 10.20L34.93 10.20Q34.29 10.33 33.56 10.33L33.56 10.33L33.56 10.33Q32.34 10.33 31.43 9.96L31.43 9.96L31.43 9.96Q30.52 9.58 29.92 8.92L29.92 8.92L29.92 8.92Q29.31 8.25 29.01 7.33L29.01 7.33L29.01 7.33Q28.70 6.42 28.70 5.33Z"></path></g><!----><g data-v-423bf9ae="" id="cc35d247-e365-4f63-9291-e1257a0c8aa0" transform="matrix(1.25,0,0,1.25,-17.5,-17.5)" stroke="none" fill="#19CEDA"><circle cx="23" cy="23" r="9"></circle><path d="M23 41a9 9 0 0 0-9 9v36h18V50a9 9 0 0 0-9-9z"></path><circle cx="50" cy="23" r="9"></circle><path d="M50 41a9 9 0 0 0-9 9v36h18V50a9 9 0 0 0-9-9z"></path><circle cx="77" cy="23" r="9"></circle><path d="M77 41a9 9 0 0 0-9 9v36h18V50a9 9 0 0 0-9-9z"></path></g><!----></svg>