<svg data-v-423bf9ae="" xmlns="http://www.w3.org/2000/svg" viewBox="0 0 331 90" class="iconLeft"><!----><!----><!----><g data-v-423bf9ae="" id="f5b280f0-6657-4e5e-8405-395b69dbd8a2" fill="#19CEDA" transform="matrix(6.042295886811443,0,0,6.042295886811443,103.71600942703395,10.709970944087154)"><path d="M8.75 3.86C8.75 2.00 7.59 0.71 5.03 0.71L1.04 0.71L1.04 10.50L3.28 10.50L3.28 7.17L5.12 7.17C7.64 7.17 8.75 5.54 8.75 3.86ZM6.48 3.89C6.48 4.80 5.96 5.40 4.84 5.40L3.28 5.40L3.28 2.45L4.79 2.45C5.91 2.45 6.48 2.95 6.48 3.89ZM14.59 2.44L17.57 2.44L17.57 0.71L9.38 0.71L9.38 2.44L12.33 2.44L12.33 10.50L14.59 10.50ZM22.96 10.64C25.58 10.64 27.19 9.41 27.19 6.71L27.19 0.71L24.93 0.71L24.93 6.57C24.93 8.15 24.29 8.89 23.00 8.89C21.74 8.89 21.03 8.18 21.03 6.64L21.03 0.71L18.79 0.71L18.79 6.80C18.79 9.51 20.45 10.64 22.96 10.64ZM31.05 8.09L34.52 8.09L35.28 10.50L37.52 10.50L34.09 0.71L31.43 0.71L28.10 10.50L30.34 10.50ZM33.17 3.71L34.01 6.43L31.54 6.43L32.35 3.71L32.76 2.37Z"></path></g><!----><g data-v-423bf9ae="" id="d09cf6e5-c703-4f80-8e5b-d31b781142a2" transform="matrix(1.25,0,0,1.25,-17.5,-17.5)" stroke="none" fill="#19CEDA"><circle cx="23" cy="23" r="9"></circle><path d="M23 41a9 9 0 0 0-9 9v36h18V50a9 9 0 0 0-9-9z"></path><circle cx="50" cy="23" r="9"></circle><path d="M50 41a9 9 0 0 0-9 9v36h18V50a9 9 0 0 0-9-9z"></path><circle cx="77" cy="23" r="9"></circle><path d="M77 41a9 9 0 0 0-9 9v36h18V50a9 9 0 0 0-9-9z"></path></g><!----></svg>